<svg fill="none" height="41" viewBox="0 0 121 41" width="121" xmlns="http://www.w3.org/2000/svg" xmlns:xlink="http://www.w3.org/1999/xlink"><clipPath id="c"><path d="m.667969.5h119.664v40h-119.664z"></path></clipPath><g clip-path="url(#c)"><path d="m110.803.50013h-100.6004c-.36665 0-.72895 0-1.09468.002-.30615.002-.60986.00781-.91895.0127-.67149.007902-1.34139.066976-2.0039.17671-.66158.112123-1.30243.32351-1.90088.627-.59772.30606-1.14388.70376-1.61865 1.17866-.47727.47357-.87511 1.02095-1.17822 1.62109-.30395.59895-.514711 1.24078-.625001 1.90332-.111339.66171-.171252 1.33104-.1792 2.002-.00928.3066-.01026.61422-.01515.92086v23.11423c.00489.3105.00587.6113.01515.9219.007951.671.067863 1.3403.1792 2.0019.109986.663.320761 1.3052.625001 1.9043.30297.5982.70087 1.1434 1.17822 1.6143.47297.477 1.01948.875 1.61865 1.1787.59845.3043 1.23923.517 1.90088.6308.66262.1089 1.33246.168 2.0039.1768.30909.0068.6128.0107.91895.0107.36572.002.72805.002 1.09468.002h100.6004c.359 0 .724 0 1.084-.002.304 0 .617-.0039.922-.0107.67-.0083 1.338-.0674 2-.1768.663-.1146 1.307-.3272 1.908-.6308.598-.3039 1.144-.7018 1.617-1.1787.476-.4727.875-1.0175 1.182-1.6143.302-.5996.51-1.2417.619-1.9043.111-.6617.173-1.3309.185-2.0019.004-.3106.004-.6114.004-.9219.008-.3633.008-.7246.008-1.0938v-20.9286c0-.36625 0-.72953-.008-1.09183 0-.30664 0-.61426-.004-.9209-.012-.67102-.074-1.3402-.185-2.002-.109-.66216-.318-1.30394-.619-1.90332-.618-1.20292-1.596-2.18209-2.799-2.7998-.602-.30275-1.245-.51408-1.908-.627-.661-.110217-1.33-.169312-2-.17676-.305-.00488-.618-.01074-.922-.01269-.36-.002-.725-.00187-1.084-.00187z" fill="#a6a6a6"></path><path d="m9.11284 39.625c-.30468 0-.602-.0039-.90429-.0107-.62622-.0082-1.25098-.0627-1.86914-.1631-.57641-.0993-1.1348-.2839-1.65674-.5479-.51716-.2618-.98885-.605-1.397-1.0166-.41406-.4067-.75879-.8785-1.02051-1.3965-.26462-.5214-.44774-1.0803-.543-1.6572-.10288-.6199-.15854-1.2467-.1665-1.875-.00634-.2109-.01464-.9131-.01464-.9131v-23.10056s.00884-.69141.01469-.89454c.00762-.62732.06296-1.25315.16553-1.87207.09543-.57848.2787-1.13898.54346-1.6621.26076-.51769.60357-.98977 1.01514-1.39795.4111-.41206.8843-.75708 1.40234-1.02247.52074-.26312 1.07807-.44648 1.65332-.54394.62019-.10143 1.24712-.15627 1.87551-.16406l.90232-.01221h102.76867l.913.0127c.623.0074 1.244.06175 1.858.16259.581.09869 1.145.28333 1.671.54785 1.038.53485 1.883 1.38102 2.415 2.41993.261.51951.441 1.07544.535 1.64892.104.624.162 1.25475.174 1.88721.003.2832.003.5874.003.89014.008.375.008.73193.008 1.09176v20.9287c0 .3633 0 .7178-.008 1.0752 0 .3252 0 .6231-.004.9297-.011.6212-.069 1.2407-.171 1.8535-.093.5811-.275 1.1443-.54 1.67-.263.5124-.606.9801-1.015 1.3857-.409.4138-.881.759-1.4 1.0225-.525.266-1.087.4513-1.668.5498-.618.101-1.243.1555-1.869.1631-.293.0068-.599.0107-.897.0107l-1.084.002z" fill="#000"></path><g fill="#fff"><path d="m25.437 20.8007c.0107-.8347.2324-1.6531.6444-2.379.4121-.726 1.001-1.3359 1.7121-1.7731-.4517-.6451-1.0477-1.1761-1.7405-1.5506-.6928-.3746-1.4634-.5824-2.2506-.6071-1.6793-.1762-3.3072 1.0049-4.1629 1.0049-.8723 0-2.1898-.9874-3.6085-.9582-.9177.0297-1.8121.2965-2.5959.7746-.7839.478-1.4306 1.151-1.8771 1.9533-1.93396 3.3484-.4914 8.2695 1.3612 10.9761.9269 1.3253 2.0102 2.8058 3.4277 2.7533 1.387-.0575 1.9051-.8845 3.5794-.8845 1.6587 0 2.1448.8845 3.591.8511 1.4884-.0242 2.4261-1.3312 3.3205-2.6691.666-.9444 1.1784-1.9881 1.5184-3.0925-.8647-.3658-1.6026-.978-2.1217-1.7603-.5192-.7822-.7965-1.7001-.7975-2.6389z"></path><path d="m22.7055 12.7109c.8116-.9742 1.2114-2.2264 1.1146-3.49063-1.2399.13022-2.3851.72278-3.2076 1.65963-.4022.4576-.7102.9901-.9064 1.5669-.1962.5767-.2769 1.1865-.2373 1.7945.6201.0064 1.2336-.1281 1.7943-.3931.5606-.2651 1.0538-.654 1.4424-1.1373z"></path><path d="m42.9707 27.6397h-4.7334l-1.1367 3.3564h-2.0049l4.4834-12.418h2.083l4.4834 12.418h-2.0391zm-4.2432-1.5489h3.752l-1.8496-5.4472h-.0517z"></path><path d="m55.8282 26.4697c0 2.8135-1.5059 4.6211-3.7784 4.6211-.5756.0301-1.1481-.1025-1.6519-.3826s-.9185-.6965-1.1967-1.2014h-.043v4.4844h-1.8584v-12.0488h1.7989v1.5058h.0341c.291-.5024.7127-.9166 1.2204-1.1985.5076-.2818 1.0821-.4208 1.6625-.402 2.2978 0 3.8125 1.8164 3.8125 4.622zm-1.9102 0c0-1.833-.9473-3.0381-2.3926-3.0381-1.4199 0-2.375 1.2305-2.375 3.0381 0 1.8243.9551 3.0459 2.375 3.0459 1.4453 0 2.3926-1.1963 2.3926-3.0459z"></path><path d="m65.793 26.4697c0 2.8135-1.5059 4.6211-3.7783 4.6211-.5757.0301-1.1482-.1025-1.652-.3826s-.9185-.6965-1.1967-1.2014h-.043v4.4844h-1.8584v-12.0488h1.7989v1.5058h.0341c.291-.5024.7127-.9166 1.2204-1.1985.5076-.2818 1.0821-.4208 1.6625-.402 2.2978 0 3.8125 1.8164 3.8125 4.622zm-1.9102 0c0-1.833-.9472-3.0381-2.3925-3.0381-1.42 0-2.375 1.2305-2.375 3.0381 0 1.8243.955 3.0459 2.375 3.0459 1.4453 0 2.3925-1.1963 2.3925-3.0459z"></path><path d="m72.3789 27.5361c.1377 1.2315 1.334 2.04 2.9688 2.04 1.5664 0 2.6933-.8086 2.6933-1.9189 0-.9639-.6796-1.541-2.289-1.9365l-1.6094-.3877c-2.2803-.5508-3.3389-1.6172-3.3389-3.3477 0-2.1426 1.8672-3.6143 4.5186-3.6143 2.624 0 4.4228 1.4717 4.4834 3.6143h-1.876c-.1123-1.2393-1.1367-1.9873-2.6338-1.9873s-2.5215.7568-2.5215 1.8584c0 .8779.6543 1.3945 2.2549 1.79l1.3682.3359c2.5478.6026 3.6064 1.626 3.6064 3.4424 0 2.3233-1.8506 3.7783-4.7939 3.7783-2.7539 0-4.6133-1.4209-4.7334-3.667z"></path><path d="m84.0146 19.7998v2.1426h1.7217v1.4717h-1.7217v4.9912c0 .7754.3448 1.1367 1.1016 1.1367.2044-.0036.4085-.0179.6113-.043v1.4629c-.3402.0636-.6861.0924-1.0322.0859-1.833 0-2.5478-.6885-2.5478-2.4443v-5.1894h-1.3164v-1.4717h1.3163v-2.1426z"></path><path d="m86.7334 26.4697c0-2.8486 1.6777-4.6386 4.2939-4.6386 2.625 0 4.295 1.79 4.295 4.6386 0 2.8565-1.6612 4.6387-4.295 4.6387-2.6328 0-4.2939-1.7822-4.2939-4.6387zm6.6953 0c0-1.9541-.8955-3.1074-2.4014-3.1074-1.5058 0-2.4004 1.1621-2.4004 3.1074 0 1.9619.8946 3.1065 2.4004 3.1065 1.5059 0 2.4014-1.1446 2.4014-3.1065z"></path><path d="m96.8545 21.9424h1.7725v1.541h.043c.1199-.4813.4018-.9066.7984-1.2045s.8836-.4502 1.3796-.4313c.214-.0007.427.0226.636.0694v1.7383c-.27-.0827-.552-.1206-.835-.1123-.27-.011-.539.0366-.7886.1395-.2498.1029-.4744.2586-.6584.4565s-.3229.4333-.4074.6899c-.0844.2567-.1123.5286-.0817.7971v5.3701h-1.8584z"></path><path d="m110.053 28.3369c-.25 1.6436-1.851 2.7715-3.899 2.7715-2.633 0-4.268-1.7647-4.268-4.5957 0-2.8399 1.643-4.6816 4.19-4.6816 2.505 0 4.08 1.7206 4.08 4.4658v.6367h-6.394v.1123c-.03.3332.012.6689.122.9847s.286.6046.517.8472c.23.2425.509.4333.819.5596s.643.1852.977.1729c.439.0412.88-.0605 1.257-.29.377-.2294.669-.5743.834-.9834zm-6.282-2.7021h4.526c.017-.2996-.029-.5994-.134-.8807-.104-.2812-.266-.5377-.474-.7535-.209-.2157-.46-.3861-.737-.5003-.278-.1142-.576-.1698-.876-.1634-.302-.0018-.602.0563-.882.1711-.281.1147-.535.2838-.749.4974-.215.2137-.385.4676-.5.7473-.116.2796-.175.5794-.174.8821z"></path><path d="m38.4941 9.231c.3897-.02796.7806.0309 1.1447.17233.3641.14144.6923.36192.9609.64557.2686.2836.4709.6233.5923.9946.1214.3712.1589.7648.1098 1.1523 0 1.9063-1.0303 3.002-2.8077 3.002h-2.1552v-5.9668zm-1.2285 5.123h1.125c.2784.0166.557-.029.8156-.1336.2585-.1046.4905-.2656.679-.4711.1885-.2056.3287-.4506.4106-.7172.0819-.2667.1032-.5482.0626-.8241.0377-.2748.0141-.5546-.069-.8193-.0831-.2646-.2237-.5076-.4118-.7116-.188-.2039-.4189-.3637-.676-.4679-.2571-.1043-.534-.1504-.811-.135h-1.125z"></path><path d="m42.3489 12.9443c-.0283-.2959.0056-.5944.0994-.8765s.2456-.5414.4455-.7614c.2-.22.4437-.3958.7155-.516.2719-.1203.5659-.1824.8631-.1824.2973 0 .5913.0621.8632.1824.2718.1202.5155.296.7155.516.1999.22.3517.4793.4455.7614s.1277.5806.0994.8765c.0288.2963-.0046.5952-.0982.8778-.0936.2825-.2453.5423-.4453.7627s-.4439.3966-.716.5171-.5664.1828-.8641.1828c-.2976 0-.5919-.0623-.864-.1828-.2722-.1205-.516-.2967-.716-.5171s-.3517-.4802-.4453-.7627c-.0936-.2826-.127-.5815-.0982-.8778zm3.333 0c0-.976-.4385-1.5468-1.208-1.5468-.7724 0-1.207.5708-1.207 1.5469 0 .9838.4346 1.5502 1.207 1.5502.7696 0 1.208-.5703 1.208-1.5503z"></path><path d="m52.2412 15.1978h-.9219l-.9306-3.3165h-.0703l-.9268 3.3165h-.9131l-1.2412-4.503h.9014l.8066 3.436h.0664l.9258-3.436h.8525l.9258 3.436h.0703l.8028-3.436h.8886z"></path><path d="m54.5215 10.6948h.8555v.7153h.0664c.1126-.2569.3026-.4722.5435-.616.2409-.1439.5206-.2089.8002-.1862.2191-.0165.4391.0166.6437.0967s.3886.2052.5382.366c.1497.1608.2613.3533.3265.5631s.0824.4316.0502.649v2.915h-.8887v-2.6918c0-.7237-.3144-1.0835-.9716-1.0835-.1488-.007-.2973.0183-.4354.0742-.138.0558-.2624.1408-.3645.2492s-.1796.2376-.2271.3787c-.0476.1411-.064.2909-.0482.439v2.6343h-.8887z"></path><path d="m59.7617 8.937h.8887v6.2607h-.8887z"></path><path d="m61.886 12.9443c-.0283-.2959.0056-.5945.0994-.8766.0939-.282.2457-.5414.4457-.7614.1999-.22.4436-.3957.7155-.516s.5659-.1824.8632-.1824.5913.0621.8631.1824c.2719.1203.5156.296.7156.516s.3517.4794.4456.7614c.0939.2821.1277.5807.0995.8766.0288.2963-.0047.5953-.0983.8778-.0937.2825-.2453.5423-.4454.7627-.2.2204-.4439.3966-.716.5171-.2722.1205-.5665.1828-.8641.1828-.2977 0-.592-.0623-.8641-.1828-.2722-.1205-.5161-.2967-.7161-.5171s-.3517-.4802-.4453-.7627-.1271-.5815-.0983-.8778zm3.333 0c0-.976-.4385-1.5468-1.208-1.5468-.7725 0-1.207.5708-1.207 1.5469 0 .9838.4346 1.5502 1.207 1.5502.7695 0 1.208-.5703 1.208-1.5503z"></path><path d="m67.0684 13.9243c0-.8105.6035-1.2778 1.6748-1.3442l1.2197-.0703v-.3887c0-.4756-.3145-.7441-.9219-.7441-.4961 0-.8398.1821-.9385.5004h-.8603c.0908-.7734.8184-1.2695 1.8398-1.2695 1.1289 0 1.7657.562 1.7657 1.5132v3.0767h-.8555v-.6329h-.0703c-.1427.227-.3431.4121-.5808.5363-.2376.1242-.5039.1831-.7718.1707-.189.0197-.3801-.0005-.5608-.0592-.1808-.0587-.3472-.1546-.4886-.2815-.1415-.127-.2547-.2822-.3325-.4556-.0777-.1734-.1183-.3612-.119-.5513zm2.8945-.3848v-.3764l-1.0996.0703c-.6201.0415-.9014.2524-.9014.6494 0 .4053.3516.6411.835.6411.1417.0144.2847.0001.4207-.042s.2622-.1111.371-.203c.1088-.0918.198-.2046.2623-.3316s.1024-.2657.112-.4078z"></path><path d="m72.0156 12.9443c0-1.4228.7315-2.3242 1.8692-2.3242.2814-.0129.5607.0545.8052.1944.2445.1398.4442.3465.5756.5956h.0664v-2.4731h.8887v6.2607h-.8516v-.7114h-.0703c-.1416.2475-.3482.4515-.5974.59-.2493.1385-.5317.2062-.8166.1956-1.1455.0001-1.8692-.9013-1.8692-2.3276zm.918 0c0 .9551.4502 1.5298 1.2032 1.5298.749 0 1.2119-.583 1.2119-1.5259 0-.9384-.4678-1.5297-1.2119-1.5297-.7481 0-1.2032.5786-1.2032 1.5258z"></path><path d="m79.8977 12.9443c-.0283-.2959.0056-.5944.0994-.8765.0939-.2821.2456-.5414.4456-.7614.1999-.22.4436-.3958.7155-.516.2718-.1203.5658-.1824.8631-.1824.2972 0 .5912.0621.8631.1824.2718.1202.5155.296.7155.516.1999.22.3517.4793.4455.7614.0939.2821.1277.5806.0994.8765.0289.2963-.0046.5952-.0982.8778-.0936.2825-.2452.5423-.4452.7627s-.4439.3966-.716.5171c-.2722.1205-.5665.1828-.8641.1828s-.592-.0623-.8641-.1828-.516-.2967-.716-.5171-.3517-.4802-.4453-.7627c-.0936-.2826-.127-.5815-.0982-.8778zm3.333 0c0-.976-.4384-1.5468-1.208-1.5468-.7724 0-1.207.5708-1.207 1.5469 0 .9838.4346 1.5502 1.207 1.5502.7696 0 1.208-.5703 1.208-1.5503z"></path><path d="m85.3369 10.6948h.8555v.7153h.0664c.1127-.2569.3027-.4722.5435-.616.2409-.1439.5206-.2089.8002-.1862.2191-.0165.4391.0166.6437.0967s.3886.2052.5383.366.2612.3533.3264.5631.0824.4316.0502.649v2.915h-.8886v-2.6918c0-.7237-.3145-1.0835-.9717-1.0835-.1488-.007-.2973.0183-.4353.0742-.1381.0558-.2624.1408-.3646.2492-.1021.1084-.1796.2376-.2271.3787s-.064.2909-.0482.439v2.6343h-.8887z"></path><path d="m94.1826 9.57373v1.14157h.9756v.7486h-.9756v2.3154c0 .4717.1944.6782.6367.6782.1133-.0003.2264-.0072.3389-.0205v.7402c-.1596.0286-.3213.0438-.4834.0454-.9883 0-1.3818-.3476-1.3818-1.2158v-2.543h-.7149v-.7485h.7149v-1.14157z"></path><path d="m96.373 8.937h.8809v2.4815h.0703c.1181-.2594.3134-.476.5591-.6203.2457-.1444.5299-.2094.8139-.1864.218-.0119.4359.0245.6381.1066.2023.082.384.2077.5321.368.1486.1604.2586.3514.3246.5596.066.2081.085.4282.056.6445v2.9073h-.8896v-2.688c0-.7193-.335-1.0835-.9629-1.0835-.1527-.0126-.3063.0084-.4501.0615-.1438.053-.2742.1369-.3822.2456s-.1909.2398-.243.3839-.072.2979-.0584.4506v2.6298h-.8887z"></path><path d="m105.429 13.9819c-.12.4116-.382.7676-.739 1.0057-.356.2382-.785.3433-1.212.2971-.296.0078-.591-.049-.864-.1666-.272-.1175-.516-.2929-.714-.514-.198-.2212-.345-.4827-.432-.7666-.087-.2838-.11-.5831-.07-.877-.039-.2949-.015-.5949.071-.8795.087-.2847.234-.5475.43-.7706.197-.223.44-.4012.711-.5224.272-.1212.567-.1826.864-.1801 1.253 0 2.009.856 2.009 2.27v.3101h-3.18v.0498c-.014.1652.007.3316.061.4883.054.1568.141.3005.254.4219.113.1215.25.218.402.2834s.317.0982.483.0964c.212.0255.428-.0128.618-.11.191-.0972.349-.2489.453-.4359zm-3.126-1.4511h2.275c.011-.1512-.01-.303-.061-.4457-.05-.1427-.131-.2732-.235-.383-.105-.1099-.231-.1967-.371-.2549s-.29-.0864-.442-.0829c-.153-.002-.306.0269-.448.0848-.143.058-.272.1438-.381.2525-.108.1088-.194.2381-.252.3805s-.087.295-.085.4487z"></path></g></g></svg>