<svg fill="none" height="41" viewBox="0 0 136 41" width="136" xmlns="http://www.w3.org/2000/svg" xmlns:xlink="http://www.w3.org/1999/xlink"><clipPath id="b"><path d="m.332031.5h135v40h-135z"></path></clipPath><g clip-path="url(#b)"><path d="m130.332 40.5h-124.99997c-2.8 0-4.999999-2.2-4.999999-5v-30c0-2.8 2.199999-5 4.999999-5h124.99997c2.8 0 5 2.2 5 5v30c0 2.7-2.2 5-5 5z" fill="#000"></path><path d="m130.332 1.3c2.3 0 4.2 1.9 4.2 4.2v30c0 2.3-1.9 4.2-4.2 4.2h-124.99997c-2.3 0-4.2-1.9-4.2-4.2v-30c0-2.3 1.9-4.2 4.2-4.2zm0-.8h-124.99997c-2.8 0-4.999999 2.2-4.999999 5v30c0 2.8 2.199999 5 4.999999 5h124.99997c2.8 0 5-2.2 5-5v-30c0-2.7-2.2-5-5-5z" fill="#b6a6a6"></path><g fill="#fff"><path d="m47.7324 10.7c0 .8-.2 1.5-.7 2-.6.6-1.3.9-2.2.9s-1.6-.3-2.2-.9-.9-1.3-.9-2.2.3-1.6.9-2.2 1.3-.9 2.2-.9c.4 0 .9.1 1.2.2.4.2.7.4 1 .7l-.6.6c-.2-.2-.4-.4-.7-.5s-.6-.2-.9-.2c-.7 0-1.2.2-1.7.7-.4.5-.7 1-.7 1.7s.2 1.3.7 1.7c.5.5 1 .7 1.7.7.6 0 1.1-.2 1.5-.5s.6-.8.7-1.4h-2.2v-.7h2.9z" stroke="#fff" stroke-miterlimit="10" stroke-width=".2"></path><path d="m52.332 7.5v.7h-2.7v1.9h2.5v.7h-2.5v1.9h2.7v.8h-3.5v-6z" stroke="#fff" stroke-miterlimit="10" stroke-width=".2"></path><path d="m55.6328 8.2v5.3h-.8v-5.3h-1.7v-.7h4.2v.7z" stroke="#fff" stroke-miterlimit="10" stroke-width=".2"></path><path d="m61.0324 13.5h-.8v-6h.8z" stroke="#fff" stroke-miterlimit="10" stroke-width=".2"></path><path d="m64.4326 8.2v5.3h-.8v-5.3h-1.7v-.7h4.1v.7z" stroke="#fff" stroke-miterlimit="10" stroke-width=".2"></path><path d="m74.8328 10.5c0 .9-.3 1.6-.9 2.2s-1.3.9-2.2.9-1.6-.3-2.2-.9-.9-1.3-.9-2.2.3-1.6.9-2.2 1.3-.9 2.2-.9 1.6.3 2.2.9.9 1.3.9 2.2zm-5.4 0c0 .7.2 1.3.7 1.7.4.5 1 .7 1.6.7.7 0 1.2-.2 1.6-.7.4-.4.7-1 .7-1.7s-.2-1.3-.7-1.7c-.4-.5-1-.7-1.6-.7-.7 0-1.2.2-1.6.7-.5.4-.7 1-.7 1.7z" stroke="#fff" stroke-miterlimit="10" stroke-width=".2"></path><path d="m76.632 13.5h-.8v-6h.9l2.9 4.7v-1.2-3.5h.8v6h-.8l-3.1-4.9v1.2 3.7z" stroke="#fff" stroke-miterlimit="10" stroke-width=".2"></path><path d="m68.4316 22.3c-2.4 0-4.3 1.8-4.3 4.3 0 2.4 1.9 4.3 4.3 4.3s4.3-1.8 4.3-4.3c0-2.6-1.9-4.3-4.3-4.3zm0 6.8c-1.3 0-2.4-1.1-2.4-2.6s1.1-2.6 2.4-2.6 2.4 1 2.4 2.6c0 1.5-1.1 2.6-2.4 2.6zm-9.3-6.8c-2.4 0-4.3 1.8-4.3 4.3 0 2.4 1.9 4.3 4.3 4.3s4.3-1.8 4.3-4.3c0-2.6-1.9-4.3-4.3-4.3zm0 6.8c-1.3 0-2.4-1.1-2.4-2.6s1.1-2.6 2.4-2.6 2.4 1 2.4 2.6c0 1.5-1.1 2.6-2.4 2.6zm-11.1-5.5v1.8h4.3c-.1 1-.5 1.8-1 2.3-.6.6-1.6 1.3-3.3 1.3-2.7 0-4.7-2.1-4.7-4.8s2.1-4.8 4.7-4.8c1.4 0 2.5.6 3.3 1.3l1.3-1.3c-1.1-1-2.5-1.8-4.5-1.8-3.6 0-6.7 3-6.7 6.6s3.1 6.6 6.7 6.6c2 0 3.4-.6 4.6-1.9 1.2-1.2 1.6-2.9 1.6-4.2 0-.4 0-.8-.1-1.1zm45.4 1.4c-.4-1-1.4-2.7-3.6-2.7s-4 1.7-4 4.3c0 2.4 1.8 4.3 4.2 4.3 1.9 0 3.1-1.2 3.5-1.9l-1.4-1c-.5.7-1.1 1.2-2.1 1.2s-1.6-.4-2.1-1.3l5.7-2.4zm-5.8 1.4c0-1.6 1.3-2.5 2.2-2.5.7 0 1.4.4 1.6.9zm-4.7 4.1h1.9v-12.5h-1.9zm-3-7.3c-.5-.5-1.3-1-2.3-1-2.1 0-4.1 1.9-4.1 4.3s1.9 4.2 4.1 4.2c1 0 1.8-.5 2.2-1h.1v.6c0 1.6-.9 2.5-2.3 2.5-1.1 0-1.9-.8-2.1-1.5l-1.6.7c.5 1.1 1.7 2.5 3.8 2.5 2.2 0 4-1.3 4-4.4v-7.6h-1.8zm-2.2 5.9c-1.3 0-2.4-1.1-2.4-2.6s1.1-2.6 2.4-2.6 2.3 1.1 2.3 2.6-1 2.6-2.3 2.6zm24.4004-11.1h-4.5004v12.5h1.9v-4.7h2.6004c2.1 0 4.1-1.5 4.1-3.9s-2-3.9-4.1-3.9zm.1 6h-2.7004v-4.3h2.7004c1.4 0 2.2 1.2 2.2 2.1-.1 1.1-.9 2.2-2.2 2.2zm11.5-1.8c-1.4 0-2.8.6-3.3 1.9l1.7.7c.4-.7 1-.9 1.7-.9 1 0 1.9.6 2 1.6v.1c-.3-.2-1.1-.5-1.9-.5-1.8 0-3.6 1-3.6 2.8 0 1.7 1.5 2.8 3.1 2.8 1.3 0 1.9-.6 2.4-1.2h.1v1h1.8v-4.8c-.2-2.2-1.9-3.5-4-3.5zm-.2 6.9c-.6 0-1.5-.3-1.5-1.1 0-1 1.1-1.3 2-1.3.8 0 1.2.2 1.7.4-.2 1.2-1.2 2-2.2 2zm10.5-6.6-2.1 5.4h-.1l-2.2-5.4h-2l3.3 7.6-1.9 4.2h1.9l5.1-11.8zm-16.8 8h1.9v-12.5h-1.9z"></path></g><path d="m21.0316 19.9-10.6 11.3c.3 1.2 1.4 2.1 2.8 2.1.5 0 1-.1 1.5-.4l12-6.9z" fill="#ea4335"></path><path d="m31.832 18-5.2-3-5.8 5.2 5.8 5.8 5.1-3c.9-.5 1.5-1.4 1.5-2.5.1-1.1-.5-2-1.4-2.5z" fill="#fbbc04"></path><path d="m10.432 9.8c-.1.2-.1.5-.1.7v20c0 .3 0 .5.1.7l11-11z" fill="#4285f4"></path><path d="m21.132 20.5 5.5-5.5-12-6.9c-.4-.3-.9-.4-1.5-.4-1.3 0-2.5.9-2.8 2.1z" fill="#34a853"></path></g></svg>